G04 #@! TF.GenerationSoftware,KiCad,Pcbnew,(5.1.2)-2*
G04 #@! TF.CreationDate,2021-01-09T13:54:27+05:30*
G04 #@! TF.ProjectId,four way switch,666f7572-2077-4617-9920-737769746368,rev?*
G04 #@! TF.SameCoordinates,Original*
G04 #@! TF.FileFunction,Copper,L2,Bot*
G04 #@! TF.FilePolarity,Positive*
%FSLAX46Y46*%
G04 Gerber Fmt 4.6, Leading zero omitted, Abs format (unit mm)*
G04 Created by KiCad (PCBNEW (5.1.2)-2) date 2021-01-09 13:54:27*
%MOMM*%
%LPD*%
G04 APERTURE LIST*
%ADD10R,1.500000X1.500000*%
%ADD11C,1.500000*%
%ADD12O,1.600000X1.600000*%
%ADD13R,1.600000X1.600000*%
%ADD14C,1.524000*%
%ADD15C,1.600000*%
%ADD16O,2.500000X2.500000*%
%ADD17R,2.500000X2.500000*%
%ADD18C,3.000000*%
%ADD19R,3.000000X3.000000*%
%ADD20C,1.000000*%
G04 APERTURE END LIST*
D10*
X170000000Y-75000000D03*
D11*
X170000000Y-80080000D03*
X170000000Y-77540000D03*
D12*
X156380000Y-82000000D03*
X164000000Y-74380000D03*
X156380000Y-79460000D03*
X164000000Y-76920000D03*
X156380000Y-76920000D03*
X164000000Y-79460000D03*
X156380000Y-74380000D03*
D13*
X164000000Y-82000000D03*
D14*
X148000000Y-37500000D03*
X148000000Y-52500000D03*
X178000000Y-42500000D03*
X178000000Y-47500000D03*
D12*
X159300000Y-70000000D03*
D15*
X172000000Y-70000000D03*
D16*
X177000000Y-79000000D03*
X177000000Y-66800000D03*
X189000000Y-66800000D03*
X189000000Y-79000000D03*
D17*
X183000000Y-81000000D03*
D18*
X149000000Y-81320000D03*
X149000000Y-76240000D03*
D19*
X149000000Y-61000000D03*
D18*
X149000000Y-71160000D03*
X149000000Y-66080000D03*
X187000000Y-39840000D03*
X187000000Y-44920000D03*
D19*
X187000000Y-50000000D03*
D15*
X167500000Y-62000000D03*
X165000000Y-62000000D03*
X156500000Y-62000000D03*
D13*
X159000000Y-62000000D03*
D20*
X156500000Y-63131370D02*
X159368630Y-66000000D01*
X156500000Y-62000000D02*
X156500000Y-63131370D01*
X163500000Y-66000000D02*
X167500000Y-62000000D01*
X159368630Y-66000000D02*
X163500000Y-66000000D01*
M02*
